<svg xmlns="http://www.w3.org/2000/svg" xmlns:svg="http://www.w3.org/2000/svg" xmlns:xlink="http://www.w3.org/1999/xlink" width="100%" height="100%" viewBox="0 0 791 837" preserveAspectRatio="xMidYMid meet" zoomAndPan="disable" transform=""><defs id="svgEditorDefs"><polygon id="svgEditorPolygonDefs" stroke="black" fill="maroon" style="stroke-width: 1.76px;"/><text id="svgEditorTextDefs" fill="black" style="font-family: Arial; font-size: 15.7px; font-weight: normal; font-style: normal;"/><line id="svgEditorLineDefs" stroke="black" style="fill: none; vector-effect: non-scaling-stroke; stroke-width: 1px; marker-end: url(#arrow20-16-right);"/><marker id="arrow15-12-left" markerHeight="12" markerUnits="strokeWidth" markerWidth="15" orient="auto" refX="3" refY="0" viewBox="0 -5 20 20"><path d="M 15 -5 L 0 0 L 15 5 z" fill="black"/></marker><marker id="arrow15-12-right" markerHeight="12" markerUnits="strokeWidth" markerWidth="15" orient="auto" refX="-3" refY="0" viewBox="-15 -5 20 20"><path d="M -15 -5 L 0 0 L -15 5 z" fill="black"/></marker><marker id="circle6" markerHeight="6" markerUnits="strokeWidth" markerWidth="6" orient="auto" refX="0" refY="0" viewBox="-5 -5 10 10"><circle cx="0" cy="0" r="5" style="fill:black;stroke:none;"/></marker><marker id="arrow8-6-left" markerHeight="6" markerUnits="strokeWidth" markerWidth="8" orient="auto" refX="3" refY="0" viewBox="0 -5 20 20"><path d="M 15 -5 L 0 0 L 15 5 z" fill="black"/></marker><path id="svgEditorClosePathDefs" stroke="black" fill="khaki" style="vector-effect: non-scaling-stroke; stroke-width: 1px;"/><marker id="square4" markerHeight="4" markerUnits="strokeWidth" markerWidth="4" orient="auto" refX="0" refY="0" viewBox="-5 -5 10 10"><rect fill="black" height="10" width="10" x="-5" y="-5"/></marker><marker id="arrow20-16-right" markerHeight="16" markerUnits="strokeWidth" markerWidth="20" orient="auto" refX="-3" refY="0" viewBox="-15 -5 20 20"><path d="M -15 -5 L 0 0 L -15 5 z" fill="black"/></marker><marker id="arrow10-8-right" markerHeight="8" markerUnits="strokeWidth" markerWidth="10" orient="auto" refX="-3" refY="0" viewBox="-15 -5 20 20"><path d="M -15 -5 L 0 0 L -15 5 z" fill="black"/></marker><marker id="arrow8-6-right" markerHeight="6" markerUnits="strokeWidth" markerWidth="8" orient="auto" refX="-3" refY="0" viewBox="-15 -5 20 20"><path d="M -15 -5 L 0 0 L -15 5 z" fill="black"/></marker></defs><rect id="svgEditorBackground" x="0" y="0" width="791" height="837" style="fill: none; stroke: none;"/><text fill="black" x="187" y="193" id="e11_texte" style="font-family: Arial; font-size: 20px;">Register</text><text fill="black" x="190" y="273" id="e12_texte" style="font-family: Arial; font-size: 20px;" transform="">Update</text><text fill="black" x="196" y="343" id="e13_texte" style="font-family: Arial; font-size: 20px;" transform="">Install</text><text fill="black" x="190" y="407" id="e14_texte" style="font-family: Arial; font-size: 20px;" transform="">Activate</text><line id="e15_line" x1="222" y1="206" x2="223" y2="253" stroke="black" style="stroke-width: 1px; vector-effect: non-scaling-stroke; fill: none; marker-end: url(#arrow15-12-right);"/><line id="e16_line" x1="222" y1="280" x2="222" y2="323" stroke="black" style="stroke-width: 1px; vector-effect: non-scaling-stroke; fill: none; marker-end: url(#arrow15-12-right);"/><line id="e17_line" x1="223" y1="350" x2="223" y2="387" stroke="black" style="stroke-width: 1px; vector-effect: non-scaling-stroke; fill: none; marker-end: url(#arrow15-12-right);"/><polyline stroke="black" id="e19_polyline" style="fill: none; stroke-width: 1px; vector-effect: non-scaling-stroke; marker-end: url(#arrow15-12-right);" points="152 112 201 148 205 166" transform=""/><line id="e20_line" x1="124" y1="232" x2="182" y2="256" stroke="black" style="stroke-width: 1px; vector-effect: non-scaling-stroke; fill: none; marker-end: url(#arrow15-12-right);"/><line id="e21_line" x1="123" y1="295" x2="184" y2="273" stroke="black" style="stroke-width: 1px; vector-effect: non-scaling-stroke; fill: none; marker-end: url(#arrow15-12-right);" transform=""/><text fill="black" x="71" y="106" id="e22_texte" style="font-family: Arial; font-size: 10.8px;" transform="matrix(1.03111 0 0 1.03111 1.36388 -2.39537)">navigator.serviceWorker.register()</text><text fill="black" x="41" y="224" id="e23_texte" style="font-family: Arial; font-size: 11.6px;" transform="">registration.update()</text><text fill="black" x="66.1308" y="306.674" id="e24_texte" style="font-family: Arial; font-size: 11.6px;" transform="matrix(1.12189 0 0 1.12189 -13.3611 -34.4585)">Soft Update</text><text fill="black" x="230" y="294" id="e25_texte" style="font-family: Arial; font-size: 14.2px;" transform="">fetch</text><text fill="black" x="231" y="313" id="e26_texte" style="font-family: Arial; font-size: 15px;" transform="">script match</text><rect x="424" y="250" stroke="black" id="e27_rectangle" style="stroke-width: 1.76px;" width="29" height="21" fill="maroon"/><text fill="black" x="402" y="242" id="e28_texte" style="font-family: Arial; font-size: 15px;" transform="">registration</text><line id="e31_line" x1="454" y1="261" x2="494" y2="261" stroke="black" style="stroke-width: 1px; vector-effect: non-scaling-stroke; fill: none; marker-end: url(#arrow8-6-left);"/><path stroke="black" style="vector-effect: non-scaling-stroke; stroke-width: 1px;" transform="matrix(0.270833 0 0 0.28125 498.671 239.5)" fill="white" id="e39_shape" d="M 78.7518 78.2226 c 0 26.51 -21.49 48 -48 48 s -48 -21.49 -48 -48 c 0 -26.51 21.49 -48 48 -48 s 48 21.49 48 48 Z"/><polyline stroke="black" id="e40_polyline" style="fill: none; stroke-width: 1px; vector-effect: non-scaling-stroke; marker-end: url(#arrow15-12-right);" points="269 192 369 213 396 229"/><text fill="red" x="343" y="204" id="e41_texte" style="font-family: Arial; font-size: 17.6px; font-weight: normal; font-style: italic;" transform="">Create</text><text fill="black" x="186" y="485" id="e42_texte" style="font-family: Arial; font-size: 20.2px; font-style: normal; font-weight: normal;" transform="">Unregister</text><text fill="red" x="364" y="328" id="e44_texte" style="font-family: Arial; font-size: 18.9px; font-style: italic; font-weight: normal;" transform="">Delete</text><text fill="black" x="487" y="243" id="e45_texte" style="font-family: Arial; font-size: 15.7px; font-style: italic; font-weight: normal;" transform="">active</text><line x1="520" y1="262" x2="560" y2="262" stroke="black" style="stroke-width: 1px; vector-effect: non-scaling-stroke; fill: none; marker-end: url(#arrow8-6-left);" id="e47_line"/><path stroke="black" style="vector-effect: non-scaling-stroke; stroke-width: 1px;" transform="matrix(0.270833 0 0 0.28125 498.671 239.5)" fill="white" id="e48_shape" d="M 322.444 81.7781 c 0 26.51 -21.49 48 -48 48 s -48 -21.49 -48 -48 c 0 -26.51 21.49 -48 48 -48 s 48 21.49 48 48 Z"/><text fill="black" x="547" y="243" style="font-family: Arial; font-size: 15.7px; font-style: italic; font-weight: normal;" transform="" id="e49_texte">waiting</text><line x1="586" y1="262" x2="626" y2="262" stroke="black" style="stroke-width: 1px; vector-effect: non-scaling-stroke; fill: none; marker-end: url(#arrow8-6-left);" id="e50_line"/><path stroke="black" style="vector-effect: non-scaling-stroke; stroke-width: 1px;" transform="matrix(0.270833 0 0 0.28125 498.671 239.5)" fill="white" id="e51_shape" d="M 566.138 81.7779 c 0 26.51 -21.49 48 -48 48 s -48 -21.49 -48 -48 c 0 -26.51 21.49 -48 48 -48 s 48 21.49 48 48 Z"/><text fill="black" x="606" y="243" style="font-family: Arial; font-size: 15.7px; font-style: italic; font-weight: normal;" transform="" id="e52_texte">installing</text><text fill="black" x="502" y="270" style="font-family: Arial; font-size: 15.7px; font-style: italic; font-weight: normal;" transform="" id="e53_texte">^</text><text fill="black" x="568" y="270" style="font-family: Arial; font-size: 15.7px; font-style: italic; font-weight: normal;" transform="" id="e54_texte">^</text><text fill="black" x="634" y="270" style="font-family: Arial; font-size: 15.7px; font-style: italic; font-weight: normal;" transform="" id="e55_texte">^</text><polyline stroke="black" id="e56_polyline" style="fill: none; stroke-width: 1px; vector-effect: non-scaling-stroke; marker-end: url(#arrow15-12-right); stroke-dasharray: 4px, 4px; stroke-opacity: 0.5;" points="261 271 324 304 357 373" transform=""/><polyline stroke="black" style="fill: none; stroke-width: 1px; vector-effect: non-scaling-stroke; marker-end: url(#arrow15-12-right); stroke-dasharray: 4px, 4px; stroke-opacity: 0.5;" points="257 335 304 360 335 378" id="e58_polyline" transform=""/><text fill="black" x="131.161" y="564.498" style="font-family: Arial; font-size: 20.2px; font-style: normal; font-weight: normal;" transform="matrix(0.820582 0 0 0.820582 15.0979 92.0416)" id="e60_texte">Handle Service Worker Client Unload</text><text fill="red" x="262.765" y="101.436" style="font-family: Arial; font-size: 18.9px; font-style: italic; font-weight: normal;" transform="matrix(0.692772 0 0 0.692772 117.257 221.05)" id="e63_texte">on error</text><text fill="black" x="158.183" y="559.113" style="font-family: Arial; font-size: 10.8px; font-style: italic;" transform="matrix(1.15126 0 0 1.15126 -7.49733 -66.3866)" id="e64_texte">when uninstalling flag is set</text><text fill="black" x="43" y="513" style="font-family: Arial; font-size: 11.6px;" transform="" id="e65_texte">registration.unregister()</text><line x1="151" y1="502" x2="184" y2="483" stroke="black" style="stroke-width: 1px; vector-effect: non-scaling-stroke; fill: none; marker-end: url(#arrow15-12-right);" transform="" id="e66_line"/><path stroke="black" id="e75_curveS3" style="fill: none; stroke-width: 1px; vector-effect: non-scaling-stroke; marker-end: url(#square4);" transform="" d="M 524 390 c 13.7188 4.07501 39.6434 17.2914 51 26 s 19.8467 22.2316 41 47 s 18.0037 17.1277 34 28"/><rect x="671.353271484375" y="513.2992553710938" stroke="black" style="stroke-width: 1.76px;" width="29" height="21" fill="teal" id="e76_rectangle" ry="0" rx="0" transform="matrix(0.8134 0 0 0.8134 103.758 65.7763)"/><rect x="668.8942260742188" y="555.0992431640625" stroke="black" style="stroke-width: 1.76px;" width="29" height="21" fill="teal" ry="0" rx="0" transform="matrix(0.8134 0 0 0.8134 103.758 65.7763)" id="e78_rectangle"/><rect x="671.3530883789062" y="595.669677734375" stroke="black" style="stroke-width: 1.76px;" width="29" height="21" fill="teal" ry="0" rx="0" transform="matrix(0.8134 0 0 0.8134 103.758 65.7763)" id="e80_rectangle"/><path stroke="black" id="e82_curveS3" style="fill: none; stroke-width: 1px; vector-effect: non-scaling-stroke; marker-end: url(#square4);" transform="" d="M 522 390 c 24.0993 13.5222 56.6655 59.3714 66 82 s 14.1174 27.7443 17 31 s 32.7267 24.1212 42 23"/><path stroke="black" id="e84_curveS3" style="fill: none; stroke-width: 1px; vector-effect: non-scaling-stroke; marker-end: url(#square4);" transform="" d="M 520 390 c 16.2161 17.1858 40.367 59.3215 47 82 s 2.34244 34.0876 24 56 s 36.8976 24.6495 59 30"/><text fill="black" x="679" y="497" style="font-family: Arial; font-size: 15px;" transform="" id="e85_texte">PushManager</text><text fill="black" x="678" y="532" style="font-family: Arial; font-size: 15px;" transform="" id="e86_texte">SyncManager</text><text fill="black" x="679" y="564" style="font-family: Arial; font-size: 15px;" transform="" id="e87_texte">GeofenceManager</text><rect x="488.17193603515625" y="382.9825439453125" stroke="black" style="stroke-width: 1.76px;" width="29" height="21" fill="teal" ry="0" rx="0" transform="matrix(0.8134 0 0 0.8134 103.758 65.7763)" id="e90_rectangle"/><path d="M441,271c7.656524658203125,4.416168212890625,20.583831787109375,17.343475341796875,25,25s6.246734619140625,22.6697998046875,9,30s11.61212158203125,31.059967041015625,19,39s6.71575927734375,7.393951416015625,16,13" stroke="black" id="e96_curveS3" style="fill: none; stroke-width: 1px; vector-effect: non-scaling-stroke; marker-end: url(#square4); stroke-dasharray: 4px, 4px;"/><text fill="black" x="556.601" y="391.24" style="font-family: Arial; font-size: 15px;" transform="matrix(0.863202 0 0 0.863202 51.2186 49.9877)" id="e97_texte">ServiceWorkerRegistration</text><text fill="black" x="319.816" y="364.448" style="font-family: Arial; font-size: 20.2px; font-style: normal; font-weight: normal;" transform="matrix(0.856971 0 0 0.856971 50.3095 85.1023)" id="e98_texte">Clear Registration</text><polyline stroke="black" id="e100_polyline" style="fill: none; stroke-width: 1px; vector-effect: non-scaling-stroke; marker-end: url(#arrow20-16-right);" points="409 383 429 306 436 276" transform=""/><text fill="red" x="235.339" y="196.705" style="font-family: Arial; font-size: 18.9px; font-style: italic; font-weight: normal;" transform="matrix(0.692772 0 0 0.692772 117.257 221.05)" id="e101_texte">on error</text><line id="e102_line" x1="280" y1="471" x2="366" y2="401" stroke="black" style="stroke-width: 1px; vector-effect: non-scaling-stroke; fill: none; marker-end: url(#arrow20-16-right);"/><polyline stroke="black" id="e103_polyline" style="fill: none; stroke-width: 1px; vector-effect: non-scaling-stroke; marker-end: url(#arrow20-16-right);" points="286 535 369 451 390 403"/></svg>